<?xml version="1.0" encoding="UTF-8"?>
<svg id="_400px" data-name="400px" xmlns="http://www.w3.org/2000/svg" viewBox="0 0 400 400">
  <defs>
    <style>
      .cls-1 {
        fill: #0098c7;
      }

      .cls-1, .cls-2 {
        stroke-width: 0px;
      }

      .cls-2 {
        fill: #005c8a;
      }
    </style>
  </defs>
  <g>
    <path class="cls-1" d="M362.83,141.6c-15.37-15.37-34.31-26.51-54.96-32.37-24.8-41.95-70.1-67.87-119.06-67.87-36.93,0-71.66,14.38-97.78,40.5-16.9,16.9-29.11,37.76-35.44,60.51C21.21,163.52,0,201.27,0,241.7c0,31.13,12.12,60.4,34.14,82.42,22.01,22.02,51.28,34.14,82.42,34.14h16.83c-5.83-4.76-11.15-10.12-15.86-16h-.97c-26.86,0-52.11-10.46-71.11-29.45-18.99-18.99-29.45-44.25-29.45-71.11,0-35.85,19.34-69.26,50.48-87.2l2.94-1.69.83-3.29c5.34-21.21,16.44-40.69,32.1-56.35,23.09-23.09,53.8-35.81,86.46-35.81,44.3,0,85.22,24,106.79,62.63l1.68,3.01,3.34.85c19.15,4.87,36.75,14.92,50.9,29.07,20.95,20.95,32.49,48.8,32.49,78.43s-11.54,57.48-32.49,78.43c-18.64,18.64-42.74,29.82-68.7,32.06-4.79,6.05-10.22,11.56-16.2,16.43h6.47c33.9,0,65.77-13.2,89.74-37.17,23.97-23.97,37.17-55.84,37.17-89.74s-13.2-65.77-37.17-89.74Z"/>
    <path class="cls-2" d="M354,231.34c0-43.51-34.52-79.11-77.62-80.85-12.43-37.47-47.59-63.13-87.58-63.13-48.98,0-89.18,38.37-92.1,86.63-29.74,8.69-50.7,36.2-50.7,67.71,0,33.19,23.05,61.09,53.98,68.57-1.99-5.86-3.48-11.95-4.41-18.22-19.69-8.24-33.56-27.7-33.56-50.35,0-26.06,18.54-48.57,44.08-53.54l6.52-1.27-.05-6.65c0-.18,0-.36-.01-.54v-.07c0-42.06,34.21-76.28,76.27-76.28,34.79,0,65.16,23.49,73.85,57.13l1.61,6.23,6.66-.24c.71-.03,1.43-.05,2.15-.05,35.8,0,64.92,29.12,64.92,64.92,0,24.21-13.33,45.35-33.02,56.51-.73,6.69-2.08,13.19-4,19.45,30.91-11.39,53.02-41.14,53.02-75.96Z"/>
  </g>
  <path class="cls-1" d="M200,192.78c-46.1,0-83.6,37.5-83.6,83.6s37.5,83.6,83.6,83.6,83.6-37.5,83.6-83.6-37.5-83.6-83.6-83.6ZM235.28,260.73c-2.82-3.58-5.9-7.06-9.23-10.4s-6.81-6.41-10.4-9.24c8.38-3.41,16.77-5.13,24.51-4.88.25,7.74-1.47,16.14-4.88,24.51ZM240.17,316.55c-7.74.25-16.14-1.47-24.52-4.88,3.58-2.82,7.06-5.9,10.4-9.23,0,0,0,0,0,0,3.33-3.33,6.41-6.81,9.23-10.4,3.41,8.38,5.13,16.77,4.89,24.52ZM214.73,291.11h0c-4.62,4.62-9.6,8.68-14.75,12.14-5.14-3.46-10.1-7.53-14.72-12.14h0c-4.62-4.62-8.69-9.59-12.15-14.73,3.46-5.15,7.53-10.11,12.15-14.73,4.62-4.62,9.59-8.69,14.73-12.15,5.15,3.46,10.11,7.53,14.73,12.15,4.62,4.62,8.69,9.59,12.15,14.73-3.46,5.15-7.53,10.11-12.15,14.73ZM159.83,316.55c-.25-7.74,1.47-16.14,4.88-24.51,2.82,3.58,5.9,7.06,9.23,10.4,0,0,0,0,0,0,3.33,3.33,6.81,6.41,10.39,9.23-7.84,3.19-15.7,4.92-23.02,4.92-.5,0-.99,0-1.48-.02ZM159.83,236.21c7.74-.25,16.13,1.48,24.51,4.89-3.58,2.82-7.06,5.9-10.39,9.23-3.33,3.33-6.41,6.81-9.24,10.4-3.41-8.38-5.13-16.77-4.88-24.51ZM237.55,220.2c-12.23.2-25.17,3.9-37.55,10.59-12.38-6.68-25.33-10.38-37.55-10.59,10.75-7.21,23.67-11.42,37.55-11.42s26.8,4.21,37.55,11.42ZM132.4,276.38c0-13.89,4.21-26.8,11.42-37.55.2,12.23,3.9,25.17,10.59,37.55-6.68,12.38-10.38,25.32-10.59,37.55-7.21-10.75-11.42-23.67-11.42-37.55ZM162.44,332.56c12.23-.2,25.17-3.9,37.56-10.58,12.38,6.68,25.33,10.38,37.56,10.58-10.75,7.21-23.67,11.42-37.56,11.42s-26.81-4.21-37.56-11.42ZM256.18,313.93c-.2-12.23-3.9-25.17-10.59-37.55,6.68-12.38,10.38-25.32,10.59-37.55,7.21,10.75,11.42,23.67,11.42,37.55s-4.21,26.8-11.42,37.55Z"/>
</svg>